<svg width="100" height="100" viewBox="0 0 100 100" fill="none" xmlns="http://www.w3.org/2000/svg">
<path d="M42 36C36.4772 36 32 42.0278 32 48.0556C32 55.088 33 60.1112 37 66.139C40.0409 70.2123 44.1005 71.2336 48.4279 68.3807C49.3514 67.7719 50.6486 67.7719 51.5721 68.3807C55.8995 71.2336 59.9591 70.2123 63 66.139C67 60.1112 68 55.088 68 48.0556C68 42.0278 63.5228 36 58 36C55.1492 36 52.5769 37.5698 50.7553 39.2651C50.3321 39.659 49.6679 39.659 49.2447 39.2651C47.4231 37.5698 44.8508 36 42 36Z" stroke="#E5383B" stroke-width="3" stroke-linejoin="round"/>
<path d="M38 50C38 46.733 39.6455 43.466 42 42" stroke="#FF8FA3" stroke-width="3" stroke-linecap="round" stroke-linejoin="round"/>
<path d="M50 38C50 35.3333 51.2 30 56 30" stroke="#A86A3D" stroke-width="3" stroke-linecap="round" stroke-linejoin="round"/>
</svg>
