<svg width="100" height="100" viewBox="0 0 100 100" fill="none" xmlns="http://www.w3.org/2000/svg">
<path d="M54 49.8342C58 47.8174 62.956 49.5059 65.1555 54.3715C68.4563 61.6738 61.5237 69.7653 54.0155 69.995C53.7993 70.0016 53.5718 69.9648 53.3722 69.8817C47.8783 67.5955 60.9438 59.4821 56.6639 55.0963" stroke="#F4C430" stroke-width="3" stroke-linecap="round"/>
<path d="M50.5182 52C51.5059 48.2765 49.941 44.517 45.9903 45.4479C43.598 46.0116 43.0328 47.7664 41.5861 47.9132C40.4623 48.0273 39.7688 46.744 40.0708 45.6712C42.2182 38.0443 57 38.0625 57 46.0146" stroke="#F4C430" stroke-width="3" stroke-linecap="round"/>
<path d="M54.0017 63.8169C49.6141 65.9987 40.2535 67.2283 36.0373 64.1596C34.8816 63.3184 33.3971 63.5729 32.0476 63.5729C28.7766 63.5729 29.6998 57.1987 32.875 58.4268C33.9981 58.8611 36.0402 59.4251 37.5632 58.5621C47.3662 53.0067 57.9893 52.0479 61.4928 37.4279C63.0522 30.9205 63.5011 30 66.1058 30C68.7106 30 71.8387 36.0023 68.6529 45.9169C67.8115 48.5357 66.8162 51.1545 65.3929 53.5982" stroke="#F4C430" stroke-width="3" stroke-linecap="round"/>
</svg>
