<svg width="100" height="100" viewBox="0 0 100 100" fill="none" xmlns="http://www.w3.org/2000/svg">
<path d="M54.0156 48L53.9977 48" stroke="#5A3A22" stroke-width="4" stroke-linecap="round" stroke-linejoin="round"/>
<path d="M42.0156 58L41.9977 58" stroke="#5A3A22" stroke-width="4" stroke-linecap="round" stroke-linejoin="round"/>
<path d="M38.4977 44.6061C37.5841 46.6762 37.9637 48.9783 39.3457 49.7481C40.7277 50.5179 42.5886 49.4639 43.5023 47.3939C44.4159 45.3238 44.0363 43.0217 42.6543 42.2519C41.2723 41.4821 39.4114 42.5361 38.4977 44.6061Z" stroke="#5A3A22" stroke-width="3"/>
<path d="M52.3532 57.7438C51.5739 59.248 52.1273 61.0298 53.5891 61.7235C55.0509 62.4173 56.8676 61.7603 57.6468 60.2562C58.4261 58.752 57.8727 56.9702 56.4109 56.2765C54.9491 55.5827 53.1324 56.2397 52.3532 57.7438Z" stroke="#5A3A22" stroke-width="3"/>
<path d="M50 70C38.9543 70 30 61.0457 30 50C30 38.9543 38.9543 30 50 30C50.4834 30 50.7748 30.5271 50.5919 30.9746C50.2103 31.9079 50 32.9294 50 34C50 38.4183 53.5817 42 58 42C59.0956 42 60.1398 41.7798 61.0907 41.3811C61.4973 41.2107 62 41.5591 62 42C62 45.3137 64.6863 48 68 48C68.2275 48 68.4521 47.9873 68.6731 47.9627C69.3024 47.8924 69.9381 48.2927 69.9716 48.925C69.9905 49.281 70 49.6394 70 50C70 61.0457 61.0457 70 50 70Z" stroke="#CD9A4F" stroke-width="3" stroke-linejoin="round"/>
</svg>
