<svg width="100" height="100" viewBox="0 0 100 100" fill="none" xmlns="http://www.w3.org/2000/svg">
<path d="M32.3881 54.154C29.8913 56.6163 29.6887 61.2352 30.2731 65.5016C30.8033 69.3727 35.1587 71.197 38.424 69.1524C44.3972 65.4122 50.6358 60.4842 56.6133 54.5893C62.7545 48.5331 66.1191 43.9227 69.087 38.7349C70.8866 35.5891 70.0437 31.3946 66.3994 30.4643C62.4097 29.446 57.2383 29.8638 52.6751 34.1549M32.3881 54.154C30.7206 46.6739 36.5805 37.8636 50.3312 45.5885M32.3881 54.154C33.6347 54.1793 36.4352 54.7433 39.1088 56.6488M39.6918 42.3908C39.818 38.5096 43.6452 32.0096 52.6751 34.1549M52.6751 34.1549C54.6081 34.6141 56.7795 35.4695 59.204 36.8316" stroke="#CC8B3C" stroke-width="3" stroke-linecap="round" stroke-linejoin="round"/>
</svg>
