<svg width="100" height="100" viewBox="0 0 100 100" fill="none" xmlns="http://www.w3.org/2000/svg">
<path d="M34.1041 42.9231C29.7534 46.9412 32.516 54 39.0313 54C42.2931 54 45.0483 52.0371 45.9334 49.3454M37.8749 46.6154C30.6463 43.7818 34.4925 34.7226 41.9042 35.5974C41.9042 32.5386 44.6101 30 47.948 30C51.286 30 53.9919 32.0438 53.9919 35.1026C55.0612 34.2256 56.4732 33.6923 58.0211 33.6923C61.3591 33.6923 64.065 36.172 64.065 39.2308C64.065 42.2896 61.3591 44.7692 58.0211 44.7692M63.7211 41.0769C70.7008 43.6169 68.6695 54 61.0431 54C57.1488 54 53.9919 51.0081 53.9919 47.3175C51.9773 50.3077 48.9554 51.2308 45.9334 49.3846" stroke="#2F9E44" stroke-width="3" stroke-linecap="round" stroke-linejoin="round"/>
<path d="M40 54C41.7726 54.8829 44.8257 59.0731 45 68C45.0258 69.32 48.569 70 50 70C51.431 70 54.9742 69.32 55 68C55.1743 59.0731 58.2274 54.8829 60 54" stroke="#82C785" stroke-width="3" stroke-linecap="round"/>
</svg>
