<svg width="100" height="100" viewBox="0 0 100 100" fill="none" xmlns="http://www.w3.org/2000/svg">
<path d="M42.4005 44.1508C38.1978 48.3535 27.2708 66.0049 30.6329 69.367C33.9951 72.7292 51.6465 61.8022 55.8492 57.5995C60.0519 53.3968 62.5735 50.8751 55.8492 44.1508C49.1249 37.4265 46.6032 39.9481 42.4005 44.1508Z" stroke="#ED7D14" stroke-width="3"/>
<path d="M55 57L52 54" stroke="#C75B0A" stroke-width="3" stroke-linecap="round" stroke-linejoin="round"/>
<path d="M40 48L43 51" stroke="#C75B0A" stroke-width="3" stroke-linecap="round" stroke-linejoin="round"/>
<path d="M44 64L42 62" stroke="#C75B0A" stroke-width="3" stroke-linecap="round" stroke-linejoin="round"/>
<path d="M56 30C57.0369 31.037 57.711 33.2666 56.0002 36.222M70 44C68.9631 42.963 66.7336 42.2889 63.7784 44M64.5564 35.4438L60.6679 39.3327" stroke="#2F9E44" stroke-width="3" stroke-linecap="round" stroke-linejoin="round"/>
</svg>
