<svg width="100" height="100" viewBox="0 0 100 100" fill="none" xmlns="http://www.w3.org/2000/svg">
<path d="M46 57.6892L39.3715 64.3177C40.9151 65.4178 41.1231 67.7311 39.771 69.0831C38.5485 70.3056 36.5665 70.3056 35.344 69.0831C34.3802 68.1193 34.0502 66.5575 34.6061 65.3939C33.4425 65.9498 31.8807 65.6198 30.9169 64.656C29.6944 63.4335 29.6944 61.4515 30.9169 60.229C32.2689 58.8769 34.5822 59.0849 35.6823 60.6285L42.3108 54" stroke="#DBCBA4" stroke-width="3" stroke-linejoin="round"/>
<path d="M51.0736 33.3638C55.7424 28.695 62.3387 29.0663 66.6362 33.3638C70.0659 36.7935 70.995 41.6874 68.8571 45.8972C65.3066 41.1907 57.3158 44.7966 58.8111 50.7119C55.5145 49.3394 52.6852 53.5773 54.956 56.1264C50.1965 58.0636 45.461 58.8763 43.2924 56.7076C38.9949 52.4102 46.4049 38.0326 51.0736 33.3638Z" stroke="#BE7430" stroke-width="3" stroke-linejoin="round"/>
</svg>
