<svg width="100" height="100" viewBox="0 0 100 100" fill="none" xmlns="http://www.w3.org/2000/svg">
<path d="M38.0156 50L37.9977 50" stroke="#2B2B2B" stroke-width="4" stroke-linecap="round" stroke-linejoin="round"/>
<path d="M48 58.0836C48.927 58.3894 49.8152 58.7417 50.6199 59.305M50.6199 59.305C52.7013 60.7621 54 63.1529 54 65.769C54 65.8969 53.8929 66.0006 53.7637 66C47.9297 65.9742 45.3169 64.9865 44.2188 63.3565L42 59.7137C37.017 58.7073 32.4366 55.525 30 50.1666C36 36.9718 55 36.9718 61 50.1666M50.6199 59.305C54.9603 57.9845 58.8302 54.9383 61 50.1666M50.6199 41.0284C52.7013 39.5713 54 37.1805 54 34.5644C54 32.9112 45.3834 35.2481 44.2188 36.9769L42 40.6196M61 50.1666C61.6667 48.8471 65.2 44.2289 70 44.2289C68.3333 45.8783 65.6 52.1459 68 56.1043C65.6 56.1043 62 51.4861 61 50.1666Z" stroke="#E8763C" stroke-width="3" stroke-linecap="round" stroke-linejoin="round"/>
</svg>
