<svg width="300" height="374" viewBox="0 0 300 374" fill="none" xmlns="http://www.w3.org/2000/svg">
<path d="M72 40 H228 A24 24 0 0 1 252 64 V300 L218 334 H72 A24 24 0 0 1 48 310 V64 A24 24 0 0 1 72 40 Z" fill="#FCEEC9" stroke="#2B2B2B" stroke-width="5" stroke-linejoin="round"/>
<path d="M252 300 L218 300 L218 334 Z" fill="#F3DDA6" stroke="#2B2B2B" stroke-width="5" stroke-linejoin="round"/>
<g transform="translate(68, 50)"><path d="M10 12 L10 46" fill="none" stroke="#2B2B2B" stroke-width="5" stroke-linecap="round" stroke-linejoin="round"/>
<path d="M10 13 C30 12 31 30 11 30" fill="none" stroke="#2B2B2B" stroke-width="5" stroke-linecap="round" stroke-linejoin="round"/>
<path d="M11 29 L27 46" fill="none" stroke="#2B2B2B" stroke-width="5" stroke-linecap="round" stroke-linejoin="round"/>
<path d="M40 37 L58 37" fill="none" stroke="#2B2B2B" stroke-width="5" stroke-linecap="round" stroke-linejoin="round"/>
<path d="M58 37 C58 28 49 25 44 28 C38 31 38 43 45 45 C51 47 56 44 58 40" fill="none" stroke="#2B2B2B" stroke-width="5" stroke-linecap="round" stroke-linejoin="round"/>
<path d="M86 31 C78 25 68 28 66 37 C64 45 74 49 86 43" fill="none" stroke="#2B2B2B" stroke-width="5" stroke-linecap="round" stroke-linejoin="round"/>
<path d="M95 30 L95 46" fill="none" stroke="#2B2B2B" stroke-width="5" stroke-linecap="round" stroke-linejoin="round"/>
<circle cx="95" cy="21" r="2.6" fill="#2B2B2B"/>
<path d="M109 30 L109 58" fill="none" stroke="#2B2B2B" stroke-width="5" stroke-linecap="round" stroke-linejoin="round"/>
<path d="M109 31 C129 29 130 46 109 45" fill="none" stroke="#2B2B2B" stroke-width="5" stroke-linecap="round" stroke-linejoin="round"/>
<path d="M136 37 L154 37" fill="none" stroke="#2B2B2B" stroke-width="5" stroke-linecap="round" stroke-linejoin="round"/>
<path d="M154 37 C154 28 145 25 140 28 C134 31 134 43 141 45 C147 47 152 44 154 40" fill="none" stroke="#2B2B2B" stroke-width="5" stroke-linecap="round" stroke-linejoin="round"/></g>
<circle cx="84" cy="150" r="3.6" fill="#2B2B2B"/>
<path d="M100.0 150.5 L103.0 150.7 L106.1 150.8 L109.1 150.8 L112.1 150.8 L115.1 150.6 L118.2 150.4 L121.2 150.1 L124.2 149.8 L127.2 149.5 L130.3 149.3 L133.3 149.2 L136.3 149.2 L139.3 149.2 L142.4 149.4 L145.4 149.6 L148.4 149.9 L151.4 150.2 L154.5 150.4 L157.5 150.7 L160.5 150.8 L163.5 150.8 L166.6 150.8 L169.6 150.7 L172.6 150.4 L175.6 150.2 L178.7 149.9 L181.7 149.6 L184.7 149.4 L187.7 149.2 L190.8 149.2 L193.8 149.2 L196.8 149.3 L199.8 149.5 L202.9 149.8 L205.9 150.1 L208.9 150.4 L211.9 150.6 L215.0 150.8 L218.0 150.8" fill="none" stroke="#2B2B2B" stroke-width="4.5" stroke-linecap="round" stroke-linejoin="round"/>
<circle cx="84" cy="182" r="3.6" fill="#2B2B2B"/>
<path d="M100.0 182.5 L103.0 182.7 L106.0 182.8 L109.0 182.8 L112.0 182.8 L115.0 182.6 L118.0 182.4 L121.0 182.1 L124.0 181.8 L127.0 181.6 L130.0 181.3 L133.0 181.2 L136.0 181.2 L139.0 181.2 L142.0 181.3 L145.0 181.6 L148.0 181.8 L151.0 182.1 L154.0 182.4 L157.0 182.6 L160.0 182.8 L163.0 182.8 L166.0 182.8 L169.0 182.7 L172.0 182.5 L175.0 182.2 L178.0 181.9 L181.0 181.6 L184.0 181.4 L187.0 181.2 L190.0 181.2 L193.0 181.2 L196.0 181.3 L199.0 181.5 L202.0 181.7 L205.0 182.0 L208.0 182.3 L211.0 182.6 L214.0 182.7 L217.0 182.8 L220.0 182.8 L223.0 182.7 L226.0 182.6 L229.0 182.3 L232.0 182.0" fill="none" stroke="#2B2B2B" stroke-width="4.5" stroke-linecap="round" stroke-linejoin="round"/>
<circle cx="84" cy="214" r="3.6" fill="#2B2B2B"/>
<path d="M100.0 214.5 L103.1 214.7 L106.1 214.8 L109.2 214.8 L112.2 214.8 L115.3 214.6 L118.3 214.4 L121.4 214.1 L124.4 213.8 L127.5 213.5 L130.6 213.3 L133.6 213.2 L136.7 213.2 L139.7 213.2 L142.8 213.4 L145.8 213.6 L148.9 213.9 L151.9 214.2 L155.0 214.5 L158.1 214.7 L161.1 214.8 L164.2 214.8 L167.2 214.8 L170.3 214.6 L173.3 214.4 L176.4 214.1 L179.4 213.8 L182.5 213.5 L185.6 213.3 L188.6 213.2 L191.7 213.2 L194.7 213.2 L197.8 213.4 L200.8 213.6 L203.9 213.9 L206.9 214.2 L210.0 214.5" fill="none" stroke="#2B2B2B" stroke-width="4.5" stroke-linecap="round" stroke-linejoin="round"/>
<circle cx="84" cy="246" r="3.6" fill="#2B2B2B"/>
<path d="M100.0 246.5 L103.0 246.7 L106.0 246.8 L109.1 246.8 L112.1 246.8 L115.1 246.6 L118.1 246.4 L121.2 246.1 L124.2 245.8 L127.2 245.5 L130.2 245.3 L133.3 245.2 L136.3 245.2 L139.3 245.2 L142.3 245.4 L145.3 245.6 L148.4 245.9 L151.4 246.2 L154.4 246.4 L157.4 246.7 L160.5 246.8 L163.5 246.8 L166.5 246.8 L169.5 246.7 L172.6 246.4 L175.6 246.2 L178.6 245.9 L181.6 245.6 L184.7 245.4 L187.7 245.2 L190.7 245.2 L193.7 245.2 L196.7 245.3 L199.8 245.5 L202.8 245.8 L205.8 246.1 L208.8 246.4 L211.9 246.6 L214.9 246.8 L217.9 246.8 L220.9 246.8 L224.0 246.7 L227.0 246.5 L230.0 246.2" fill="none" stroke="#2B2B2B" stroke-width="4.5" stroke-linecap="round" stroke-linejoin="round"/>
<circle cx="84" cy="278" r="3.6" fill="#2B2B2B"/>
<path d="M100.0 278.5 L103.0 278.7 L106.0 278.8 L109.0 278.8 L112.0 278.8 L115.0 278.6 L118.0 278.4 L121.0 278.1 L124.0 277.8 L127.0 277.6 L130.0 277.3 L133.0 277.2 L136.0 277.2 L139.0 277.2 L142.0 277.3 L145.0 277.6 L148.0 277.8 L151.0 278.1 L154.0 278.4 L157.0 278.6 L160.0 278.8 L163.0 278.8 L166.0 278.8 L169.0 278.7 L172.0 278.5 L175.0 278.2 L178.0 277.9 L181.0 277.6 L184.0 277.4 L187.0 277.2 L190.0 277.2 L193.0 277.2 L196.0 277.3" fill="none" stroke="#2B2B2B" stroke-width="4.5" stroke-linecap="round" stroke-linejoin="round"/>
</svg>