<svg width="100" height="100" viewBox="0 0 100 100" fill="none" xmlns="http://www.w3.org/2000/svg">
<g transform="translate(24 23) scale(2.2)">
<path d="M15.9352 4.07178C17.1971 5.54726 17.9695 7.52861 17.9695 9.70698C17.9695 14.2672 14.5848 17.964 10.4095 17.964C8.09001 17.964 6.08701 16.9041 4.72656 15.2194" stroke="#E5383B" stroke-width="1.5" stroke-linecap="round"/>
<path d="M16.4678 3.56782L13.4065 6.41039C13.3169 6.49361 13.3229 6.63688 13.404 6.72847C14.0811 7.49392 14.0983 9.138 13.3218 10.1656C12.4957 11.2587 11.2664 11.1104 10.8243 10.8828L10.5738 11.5866C10.479 11.8528 10.2114 12.017 9.93097 11.9809L8.28906 11.7694C8.16425 11.7534 8.03913 11.7968 7.95123 11.8869L5.02981 14.8786L3.63095 16.3737C2.77283 17.2908 2.8554 18.7484 3.9537 19.3582C7.42689 21.2863 13.0069 22.3269 17.8928 17.731C22.4079 13.0649 21.2591 7.40278 19.4813 3.95215C18.8943 2.8129 17.4071 2.69562 16.4678 3.56782Z" stroke="#2F9E44" stroke-width="1.5" stroke-linecap="round" stroke-linejoin="round"/>
</g>
</svg>
